<?xml version="1.0" encoding="UTF-8"?>
<svg width="600" height="400" viewBox="0 0 600 400" fill="none" xmlns="http://www.w3.org/2000/svg">
  <!-- Background Elements -->
  <circle cx="300" cy="200" r="180" fill="#E3F2FD" opacity="0.5"/>
  <circle cx="300" cy="200" r="150" fill="#BBDEFB" opacity="0.3"/>
  
  <!-- Building/Bank -->
  <path d="M200 150H400V350H200V150Z" fill="#1976D2"/>
  <path d="M180 150L300 80L420 150H180Z" fill="#1565C0"/>
  <rect x="240" y="190" width="40" height="60" fill="white"/>
  <rect x="320" y="190" width="40" height="60" fill="white"/>
  <rect x="240" y="270" width="40" height="60" fill="white"/>
  <rect x="320" y="270" width="40" height="60" fill="white"/>
  
  <!-- Columns -->
  <rect x="210" y="150" width="20" height="200" fill="#2196F3"/>
  <rect x="370" y="150" width="20" height="200" fill="#2196F3"/>
  
  <!-- Steps -->
  <rect x="200" y="350" width="200" height="20" fill="#0D47A1"/>
  
  <!-- Decorative Elements -->
  <circle cx="150" cy="100" r="20" fill="#90CAF9" opacity="0.6"/>
  <circle cx="450" cy="100" r="15" fill="#90CAF9" opacity="0.6"/>
  <circle cx="100" cy="250" r="25" fill="#90CAF9" opacity="0.6"/>
  <circle cx="500" cy="250" r="18" fill="#90CAF9" opacity="0.6"/>
  
  <!-- Dollar Signs -->
  <text x="150" y="105" font-family="Arial" font-size="24" fill="#1976D2">$</text>
  <text x="450" y="105" font-family="Arial" font-size="24" fill="#1976D2">$</text>
  <text x="100" y="255" font-family="Arial" font-size="24" fill="#1976D2">$</text>
  <text x="500" y="255" font-family="Arial" font-size="24" fill="#1976D2">$</text>
  
  <!-- Growth Arrow -->
  <path d="M50 300L100 250L150 270L200 220L250 240" stroke="#4CAF50" stroke-width="4" fill="none"/>
  <path d="M240 220L250 240L230 235" fill="none" stroke="#4CAF50" stroke-width="4"/>
</svg> 